<?xml version="1.0" encoding="UTF-8" standalone="no"?>
<svg
   xmlns:dc="http://purl.org/dc/elements/1.1/"
   xmlns:cc="http://creativecommons.org/ns#"
   xmlns:rdf="http://www.w3.org/1999/02/22-rdf-syntax-ns#"
   xmlns:svg="http://www.w3.org/2000/svg"
   xmlns="http://www.w3.org/2000/svg"
   xmlns:sodipodi="http://sodipodi.sourceforge.net/DTD/sodipodi-0.dtd"
   xmlns:inkscape="http://www.inkscape.org/namespaces/inkscape"
   version="1.1"
   id="Capa_1"
   x="0px"
   y="0px"
   viewBox="0 0 471.701 471.701"
   style="enable-background:new 0 0 471.701 471.701;"
   xml:space="preserve"
   sodipodi:docname="heart-unselected.svg"
   inkscape:version="1.0.1 (3bc2e813f5, 2020-09-07)"><metadata
   id="metadata915"><rdf:RDF><cc:Work
       rdf:about=""><dc:format>image/svg+xml</dc:format><dc:type
         rdf:resource="http://purl.org/dc/dcmitype/StillImage" /></cc:Work></rdf:RDF></metadata><defs
   id="defs913" /><sodipodi:namedview
   pagecolor="#ffffff"
   bordercolor="#666666"
   borderopacity="1"
   objecttolerance="10"
   gridtolerance="10"
   guidetolerance="10"
   inkscape:pageopacity="0"
   inkscape:pageshadow="2"
   inkscape:window-width="2560"
   inkscape:window-height="1366"
   id="namedview911"
   showgrid="false"
   inkscape:zoom="2.136947"
   inkscape:cx="235.85049"
   inkscape:cy="235.85049"
   inkscape:window-x="-10"
   inkscape:window-y="-10"
   inkscape:window-maximized="1"
   inkscape:current-layer="Capa_1" />
<g
   id="g878">
	<path
   d="M433.601,67.001c-24.7-24.7-57.4-38.2-92.3-38.2s-67.7,13.6-92.4,38.3l-12.9,12.9l-13.1-13.1   c-24.7-24.7-57.6-38.4-92.5-38.4c-34.8,0-67.6,13.6-92.2,38.2c-24.7,24.7-38.3,57.5-38.2,92.4c0,34.9,13.7,67.6,38.4,92.3   l187.8,187.8c2.6,2.6,6.1,4,9.5,4c3.4,0,6.9-1.3,9.5-3.9l188.2-187.5c24.7-24.7,38.3-57.5,38.3-92.4   C471.801,124.501,458.301,91.701,433.601,67.001z M414.401,232.701l-178.7,178l-178.3-178.3c-19.6-19.6-30.4-45.6-30.4-73.3   s10.7-53.7,30.3-73.2c19.5-19.5,45.5-30.3,73.1-30.3c27.7,0,53.8,10.8,73.4,30.4l22.6,22.6c5.3,5.3,13.8,5.3,19.1,0l22.4-22.4   c19.6-19.6,45.7-30.4,73.3-30.4c27.6,0,53.6,10.8,73.2,30.3c19.6,19.6,30.3,45.6,30.3,73.3   C444.801,187.101,434.001,213.101,414.401,232.701z"
   id="path876" />
</g>
<path
   style="fill:#ffd5d5;stroke:#000000;stroke-width:10"
   d="M 145.00907,319.73344 C 95.308918,269.99455 53.037265,227.34358 51.072067,224.95351 36.052704,206.68699 28.183707,185.76348 27.499967,162.27574 26.979431,144.39436 30.306945,128.85908 37.9368,113.54892 44.689624,99.998626 53.232082,89.219337 64.946055,79.46733 98.129529,51.841736 145.86131,48.161068 183.1326,70.353793 c 8.88404,5.289893 13.25282,8.998468 29.12558,24.724154 17.23953,17.079803 17.87498,17.548373 23.79771,17.548373 5.60596,0 5.99799,-0.29003 22.47057,-16.624323 8.11834,-8.050187 16.55056,-16.017418 18.73826,-17.704959 14.99547,-11.567159 31.1367,-18.488969 49.60348,-21.271361 7.39132,-1.113653 21.27876,-1.11662 28.54539,-0.0061 45.55784,6.962373 80.06942,40.763092 87.75547,85.947913 1.03797,6.10196 1.42272,20.51652 0.7255,27.18008 -2.07925,19.87217 -9.91483,38.70219 -22.70312,54.55887 -2.6461,3.28099 -184.50373,185.01382 -185.47017,185.34276 -0.0512,0.0174 0.73772,1.80532 -4.51396,-3.39158 -14.39343,-14.24327 -49.78433,-50.48188 -86.19824,-86.92418 z"
   id="path1478"
   sodipodi:nodetypes="ssssssssssssssssss" /></svg>
